<svg xmlns="http://www.w3.org/2000/svg" viewBox="0 0 300 63"><title>lcp-logo-h</title><g id="divider"><rect x="116.9" width="0.73" height="63" fill="#333"/></g><g id="mark"><g id="light"><path d="M56,46.05H11.61v.05H5.36A5.38,5.38,0,0,1,0,40.71c0,9.43,5.19,17.07,11.61,17.07H47.24C52,57.78,55.88,52.74,56,46.05Z" fill="#00a8ad"/><path d="M19.25,18.53A5.34,5.34,0,0,1,23,17H53.48L51,10.86l2.5-5.64H29.29c-6.36,0-11.5,7.5-11.6,16.82h0A5.42,5.42,0,0,1,19.25,18.53Z" fill="#00a8ad"/><path d="M61.41,17H95.82a5.34,5.34,0,0,1,3.79,1.57A5.42,5.42,0,0,1,101.16,22h0c-.09-9.32-5.24-16.82-11.6-16.82h-22C61.19,5.22,56,12.86,56,22.29l.06,0a5.4,5.4,0,0,1,1.56-3.73A5.34,5.34,0,0,1,61.41,17Z" fill="#00a8ad"/><path d="M53.37,28.85H29.3v0H23a5.34,5.34,0,0,1-3.79-1.57,5.43,5.43,0,0,1-1.56-3.81c0,9.43,5.19,17.06,11.6,17.06H56.05V28.85Z" fill="#00a8ad"/><path d="M95.82,28.9H89.56v0h-22V40.58H89.57c6.41,0,11.61-7.63,11.61-17.06a5.44,5.44,0,0,1-1.57,3.81A5.34,5.34,0,0,1,95.82,28.9Z" fill="#00a8ad"/></g><g id="dark"><path d="M101.17,22h0a5.42,5.42,0,0,0-1.55-3.51A5.34,5.34,0,0,0,95.82,17H89.56V28.9h6.26a5.34,5.34,0,0,0,3.79-1.57,5.44,5.44,0,0,0,1.57-3.81V22Z" fill="#333"/><path d="M67.51,23.12h0L67.69,17H61.41a5.34,5.34,0,0,0-3.79,1.57,5.4,5.4,0,0,0-1.56,3.73s0,0,0,.08h0V45.63c0,.14,0,.28,0,.42-.16,6.69-4,11.73-8.8,11.73h8.82c6.21,0,11.25-5,11.44-11.73h0V23.12Z" fill="#333"/><path d="M23,28.9H29.3V17H23a5.34,5.34,0,0,0-3.79,1.57A5.42,5.42,0,0,0,17.7,22h0v1.48a5.43,5.43,0,0,0,1.56,3.81A5.34,5.34,0,0,0,23,28.9Z" fill="#333"/><path d="M5.36,46.1h6.25V5.22l-6,2.45L0,5.22V40.71A5.38,5.38,0,0,0,5.36,46.1Z" fill="#333"/></g></g><g id="text"><path d="M135.37,45.27A3.3,3.3,0,0,1,132,41.81V31.41A3.32,3.32,0,0,1,135.37,28c1.91,0,3,1.39,3,3.39v2.87h-2.21V31.26a.69.69,0,0,0-.75-.78c-.53,0-.73.32-.73.78V42c0,.46.2.78.73.78a.69.69,0,0,0,.75-.78V39h2.21v2.88C138.36,43.91,137.28,45.27,135.37,45.27Z" fill="#00a8ad"/><path d="M145.38,45l-.15-2.88H143.7L143.45,45h-2.33l2-16.82H146L148,45Zm-.8-12.25-.63,7H145Z" fill="#00a8ad"/><path d="M155.87,45,154,37.42l-.58-2.3V45h-2.2V28.2h2.46l1.65,7.55.5,2.35V28.2H158V45Z" fill="#00a8ad"/><path d="M165,45.27a3.29,3.29,0,0,1-3.33-3.46V31.41A3.31,3.31,0,0,1,165,28c1.91,0,3,1.39,3,3.39v2.87h-2.21V31.26a.69.69,0,0,0-.75-.78c-.53,0-.73.32-.73.78V42c0,.46.2.78.73.78a.69.69,0,0,0,.75-.78V39H168v2.88C168,43.91,166.89,45.27,165,45.27Z" fill="#00a8ad"/><path d="M171.51,45V28.2h5.42v2.43h-2.84v4.59H176v2.3h-1.89v5h2.84V45Z" fill="#00a8ad"/><path d="M184.81,45c-.4,0-.63-1.64-.63-2.6V38.76c0-.41-.2-.76-.55-.76H183v7h-2.58V28.2h3.48a2.64,2.64,0,0,1,2.71,3V35a2.27,2.27,0,0,1-1.1,1.9,2.32,2.32,0,0,1,1.18,1.92v3.41a12,12,0,0,0,.33,2.72V45Zm-.71-13.74c0-.5-.15-.7-.45-.7H183v5.2h.65c.3,0,.45-.18.45-.71Z" fill="#00a8ad"/><path d="M199.11,38.48h-.93V45H195.6V28.2h3.51c1.33,0,2.69.76,2.69,3v4.27C201.8,37.7,200.44,38.48,199.11,38.48Zm.2-7.2c0-.5-.15-.7-.45-.7h-.68v5.7h.68c.3,0,.45-.2.45-.7Z" fill="#00a8ad"/><path d="M209.73,45c-.41,0-.63-1.64-.63-2.6V38.76c0-.41-.2-.76-.55-.76h-.63v7h-2.59V28.2h3.49a2.64,2.64,0,0,1,2.71,3V35a2.27,2.27,0,0,1-1.1,1.9,2.32,2.32,0,0,1,1.18,1.92v3.41a12,12,0,0,0,.33,2.72V45ZM209,31.28c0-.5-.15-.7-.45-.7h-.65v5.2h.65c.3,0,.45-.18.45-.71Z" fill="#00a8ad"/><path d="M215.27,45V28.2h5.42v2.43h-2.83v4.59h1.88v2.3h-1.88v5h2.83V45Z" fill="#00a8ad"/><path d="M228.3,45h-2.51L223.55,28.2h2.59l1,11,1-11h2.42Z" fill="#00a8ad"/><path d="M233.72,45V28.2h5.42v2.43H236.3v4.59h1.88v2.3H236.3v5h2.84V45Z" fill="#00a8ad"/><path d="M247.27,45l-1.89-7.6-.57-2.3V45H242.6V28.2h2.46l1.66,7.55.5,2.35V28.2h2.18V45Z" fill="#00a8ad"/><path d="M257.1,30.76V45h-2.58V30.76h-1.88V28.2H259v2.56Z" fill="#00a8ad"/><path d="M262.25,45V28.2h2.58V45Z" fill="#00a8ad"/><path d="M271.78,45.27a3.23,3.23,0,0,1-3.26-3.38V31.34a3.27,3.27,0,1,1,6.53,0V41.89A3.21,3.21,0,0,1,271.78,45.27Zm.63-14.11a.63.63,0,1,0-1.25,0v10.9a.63.63,0,1,0,1.25,0Z" fill="#00a8ad"/><path d="M283.4,45l-1.88-7.6-.58-2.3V45h-2.21V28.2h2.47l1.65,7.55.5,2.35V28.2h2.19V45Z" fill="#00a8ad"/><rect x="291" y="40.78" width="9" height="2.59" fill="#00a8ad"/><path d="M138.86,21.86V5.53h3.76V18.41h6.51v3.45Z" fill="#333"/><path d="M162.86,22.13c-5,0-8.24-3.64-8.24-8.42A8.09,8.09,0,0,1,163,5.27c5,0,8.24,3.63,8.24,8.44A8.11,8.11,0,0,1,162.86,22.13Zm.06-13.48c-2.57,0-4.29,2.12-4.29,5.06s1.72,5.05,4.29,5.05,4.3-2.14,4.3-5.05S165.49,8.65,162.92,8.65Z" fill="#333"/><path d="M185.28,22.13c-4.36,0-6.79-2.37-6.79-6.91V5.53h3.76V15c0,2.32,1,3.72,3.12,3.72s3.1-1.4,3.1-3.72V5.53h3.77v9.69C192.24,19.76,189.65,22.13,185.28,22.13Z" fill="#333"/><path d="M200.09,21.86V5.53h3.77V21.86Z" fill="#333"/><path d="M216.19,22.13a11,11,0,0,1-5.47-1.67l1-3.43a8.12,8.12,0,0,0,4.54,1.58c1.33,0,1.84-.63,1.84-1.43s-.42-1.42-2.9-2.43c-2.86-1.15-3.85-2.82-3.85-4.78,0-2.39,1.92-4.7,5.71-4.7a8.86,8.86,0,0,1,4.54,1.27l-1,3.38a7.29,7.29,0,0,0-3.58-1.34c-1.38,0-1.93.65-1.93,1.32,0,1.07.82,1.42,2.86,2.29,3,1.29,3.94,2.76,3.94,4.86C222,19.65,220.09,22.13,216.19,22.13Z" fill="#333"/><path d="M229.14,21.86V5.53h3.76V21.86Z" fill="#333"/><path d="M250.86,21.86l-1.22-3H244l-1.22,3H239L246.63,5.4h.51l7.64,16.46Zm-4-9.78L245.23,16h3.22Z" fill="#333"/><path d="M274.31,22.17l-9.79-8.84v8.53h-3.76V5.31l.51-.09L270.92,14V5.53h3.76V22.1Z" fill="#333"/><path d="M292.53,21.86l-1.22-3h-5.6l-1.22,3h-3.83L288.3,5.4h.51l7.64,16.46Zm-4-9.78L286.9,16h3.21Z" fill="#333"/><path d="M299.9,35.16c-.42.49-.86,1-1.33,1.45.31.28.63.56,1,.84l-1.26,1.25c-.35-.31-.78-.62-1.1-.91a4.73,4.73,0,0,1-2.6.87c-1.52,0-3.05-.92-3.05-2.51a2.9,2.9,0,0,1,2-2.49,3.37,3.37,0,0,1-.6-1.67,2.61,2.61,0,0,1,2.73-2.48,2.44,2.44,0,0,1,2.62,2.29c0,1-.76,1.9-2.16,2.33a16.76,16.76,0,0,0,1.27,1.33,12.12,12.12,0,0,0,1.3-1.42Zm-5.53-.25A1.16,1.16,0,0,0,293.7,36a1,1,0,0,0,1.1,1,2.48,2.48,0,0,0,1.1-.36C295.33,36,294.81,35.44,294.37,34.91Zm1.22-3.78a.79.79,0,0,0-.72.86,1.9,1.9,0,0,0,.4,1.08c.79-.27,1.1-.74,1.1-1.17A.74.74,0,0,0,295.59,31.13Z" fill="#333"/><path d="M143.4,57.76a3.65,3.65,0,1,1,0-7.29,4.37,4.37,0,0,1,2.2.61l-.5,1.39a3.49,3.49,0,0,0-1.68-.47,2.12,2.12,0,1,0,0,4.24,3.49,3.49,0,0,0,1.75-.52l.49,1.38A4.19,4.19,0,0,1,143.4,57.76Z" fill="#333"/><path d="M153.13,57.76a3.44,3.44,0,0,1-3.56-3.64,3.5,3.5,0,0,1,3.63-3.65,3.45,3.45,0,0,1,3.56,3.65A3.51,3.51,0,0,1,153.13,57.76Zm0-5.83A2.22,2.22,0,1,0,155,54.12,2,2,0,0,0,153.16,51.93Z" fill="#333"/><path d="M167.27,57.78,163,54v3.69h-1.63V50.49l.22,0,4.17,3.79V50.58h1.63v7.17Z" fill="#333"/><path d="M175.53,52.09v5.55H173.9V52.09h-2.11V50.58h5.85v1.51Z" fill="#333"/><path d="M185.71,57.64l-1.19-2.3h-.28l-.6,0v2.31H182v-7a17.22,17.22,0,0,1,2.07-.11c2.18,0,3,1,3,2.34a2.38,2.38,0,0,1-1.21,2l1.65,2.72ZM184.27,52a3.22,3.22,0,0,0-.63,0V54a4.63,4.63,0,0,0,.51,0c.78,0,1.28-.37,1.28-1.09S185,52,184.27,52Z" fill="#333"/><path d="M195,57.76a3.44,3.44,0,0,1-3.56-3.64,3.49,3.49,0,0,1,3.62-3.65,3.45,3.45,0,0,1,3.57,3.65A3.51,3.51,0,0,1,195,57.76Zm0-5.83a2.22,2.22,0,1,0,1.85,2.19A2,2,0,0,0,195,51.93Z" fill="#333"/><path d="M203.29,57.64V50.58h1.63v5.57h2.81v1.49Z" fill="#333"/><path d="M219.57,55.55l-.6,0v2.11h-1.63v-7a17.66,17.66,0,0,1,2-.11c2,0,3.12,1.08,3.12,2.51S221.43,55.55,219.57,55.55Zm0-3.48a4.41,4.41,0,0,0-.6,0v2l.49,0c.86,0,1.29-.38,1.29-1.06S220.38,52.07,219.57,52.07Z" fill="#333"/><path d="M230.6,57.64l-1.2-2.3h-.27l-.61,0v2.31H226.9v-7a17.16,17.16,0,0,1,2.06-.11c2.19,0,3,1,3,2.34a2.38,2.38,0,0,1-1.21,2l1.65,2.72ZM229.16,52a3.32,3.32,0,0,0-.64,0V54a4.81,4.81,0,0,0,.52,0c.78,0,1.27-.37,1.27-1.09S229.85,52,229.16,52Z" fill="#333"/><path d="M239.9,57.76a3.45,3.45,0,0,1-3.57-3.64A3.5,3.5,0,0,1,240,50.47a3.45,3.45,0,0,1,3.56,3.65A3.5,3.5,0,0,1,239.9,57.76Zm0-5.83a2.21,2.21,0,1,0,1.86,2.19A2,2,0,0,0,239.92,51.93Z" fill="#333"/><path d="M254.28,53.68v3.37a5,5,0,0,1-2.66.71,3.55,3.55,0,0,1-3.68-3.64,3.59,3.59,0,0,1,3.77-3.65,4.9,4.9,0,0,1,2.35.6l-.68,1.32a3.35,3.35,0,0,0-1.57-.39,2,2,0,0,0-2.14,2.12,2,2,0,0,0,2.05,2.18,2,2,0,0,0,1-.19v-1h-1.41V53.68Z" fill="#333"/><path d="M262.67,57.64l-1.2-2.3h-.28l-.6,0v2.31H259v-7a17.47,17.47,0,0,1,2.07-.11c2.19,0,3.05,1,3.05,2.34a2.38,2.38,0,0,1-1.21,2l1.65,2.72ZM261.22,52a3.28,3.28,0,0,0-.63,0V54a4.81,4.81,0,0,0,.52,0c.78,0,1.27-.37,1.27-1.09S261.92,52,261.22,52Z" fill="#333"/><path d="M273,57.64l-.53-1.28h-2.42l-.53,1.28h-1.65l3.3-7.11h.22l3.3,7.11Zm-1.74-4.23-.7,1.7H272Z" fill="#333"/><path d="M284.44,57.64l-.09-3.46-1.94,2.47h-.18l-2-2.47-.07,3.46h-1.57l.33-7.1.22,0,3.18,4,3.1-4,.22,0,.34,7.1Z" fill="#333"/><path d="M292.65,57.76a4.81,4.81,0,0,1-2.37-.72l.46-1.49a3.43,3.43,0,0,0,2,.69c.57,0,.79-.27.79-.62s-.18-.62-1.25-1c-1.24-.5-1.67-1.22-1.67-2.07,0-1,.83-2,2.47-2a3.87,3.87,0,0,1,2,.55l-.42,1.46A3.13,3.13,0,0,0,293,51.9c-.59,0-.83.28-.83.57,0,.46.35.62,1.24,1,1.31.56,1.7,1.2,1.7,2.1A2.23,2.23,0,0,1,292.65,57.76Z" fill="#333"/></g></svg>