<svg xmlns="http://www.w3.org/2000/svg" viewBox="0 0 148 64">
    <path id="tagline" fill="#77787B" d="M4.9153564,64 C2.49838458,64 1.00279981,62.2374659 1.00279981,60.0197964 C0.962883734,58.969273 1.35116597,57.9477029 2.07829858,57.1901606 C2.80543119,56.4326182 3.80879008,56.0043467 4.85749152,56.003896 C5.92132391,55.9571686 6.96072284,56.3322741 7.75073587,57.0480301 L7.18989158,57.7084226 C6.55792743,57.1122147 5.71605186,56.7913213 4.84858923,56.8160003 C3.14380063,56.8160003 1.92418685,58.2572623 1.92418685,59.9885617 C1.92418685,61.8358759 3.10374032,63.201282 4.96877014,63.201282 C5.77590865,63.2009514 6.55959308,62.9291285 7.19434273,62.4293367 L7.19434273,60.5150908 L4.8263335,60.5150908 L4.8263335,59.7342213 L8,59.7342213 L8,62.8041541 C7.15242135,63.5677643 6.05490989,63.9932445 4.9153564,64 Z M12.6526739,63.2519298 C13.2864875,63.2551242 13.890489,62.9596577 14.3086359,62.4418635 L14.7971447,62.9189026 C14.2630678,63.6243289 13.4597101,64.0227957 12.6195547,63.9989909 C11.9013086,63.9950088 11.2157347,63.672228 10.7217151,63.105453 C10.2276954,62.538678 9.96811608,61.7771109 10.0031347,60.9972453 C10.0031347,59.332109 11.07951,58 12.5408965,58 C14.1016406,58 15,59.3501105 15,61.042249 C15,61.1187552 15,61.2087626 15,61.3077707 L10.7938566,61.3077707 C10.8274505,62.3958349 11.6512088,63.2574135 12.6526739,63.2519298 Z M14.1968584,60.6777191 C14.1140603,59.6291333 13.563453,58.7200589 12.5119171,58.7200589 C11.5928582,58.7200589 10.8973542,59.5526271 10.7938566,60.6777191 L14.1968584,60.6777191 Z M17.4282018,62.3985076 C17.3959843,62.6435977 17.4739515,62.8905624 17.6384077,63.0643445 C17.802864,63.2381266 18.0343872,63.3182027 18.2626132,63.2802361 C18.5121878,63.2819742 18.7584743,63.2192003 18.9805951,63.0972358 L18.9805951,63.7751686 C18.7048764,63.927738 18.3982371,64.0048907 18.087969,63.9997598 C17.2923674,63.9997598 16.690815,63.5838502 16.690815,62.502485 L16.690815,59.2999805 L16,59.2999805 L16,58.6012523 L16.690815,58.6012523 L16.690815,57 L17.4282018,57 L17.4282018,58.6012523 L19,58.6012523 L19,59.2999805 L17.4282018,59.2999805 L17.4282018,62.3985076 Z M29.5671429,58.016185 C29.5855131,58.8342341 29.1233771,59.5757121 28.4142857,59.865896 C29.2714286,60.1526012 30,60.6982659 30,61.8080925 C30,63.1953757 28.9328571,64 27.3128571,64 L24,64 L24,56 L27.1542857,56 C28.6157143,56 29.5671429,56.7768786 29.5671429,58.016185 Z M28.71,58.1410405 C28.71,57.3410405 28.1314286,56.8277457 27.0728571,56.8277457 L24.8271429,56.8277457 L24.8271429,59.6023121 L27.0171429,59.6023121 C28.02,59.5606936 28.7185714,59.0705202 28.7185714,58.1225434 L28.71,58.1410405 Z M29.1385714,61.7618497 C29.1385714,60.883237 28.4614286,60.3745665 27.1671429,60.3745665 L24.8271429,60.3745665 L24.8271429,63.1953757 L27.3128571,63.1953757 C28.4357143,63.1815029 29.1342857,62.6404624 29.1342857,61.7433526 L29.1385714,61.7618497 Z M31.7589286,59.181693 L31.5044643,58.4772979 C32.1496646,58.1580814 32.8585434,57.9947852 33.5758929,58.000127 C35.1294643,58.000127 36,58.8090452 36,60.3359921 L36,63.8806903 L35.1875,63.8806903 L35.1875,62.9990602 C34.6985142,63.651281 33.9306241,64.0235119 33.125,63.9988469 C32.0669643,63.9988469 31,63.3944304 31,62.181053 C31,60.9676755 31.9910714,60.2723693 33.4330357,60.2723693 C34.026708,60.2680462 34.6178019,60.3522554 35.1875,60.522316 L35.1875,60.3178142 C35.1875,59.2771272 34.5580357,58.7363335 33.4910714,58.7363335 C32.8881739,58.7505773 32.2961595,58.9027929 31.7589286,59.181693 Z M31.8571429,62.1446971 C31.8571429,62.8854481 32.5178571,63.3080852 33.2901786,63.3080852 C34.3392857,63.3080852 35.1964286,62.6582239 35.1964286,61.7402379 L35.1964286,61.1812663 C34.6533843,61.0151451 34.0893556,60.9309348 33.5223214,60.9313196 C32.4553571,60.9313196 31.8571429,61.4039461 31.8571429,62.1446971 Z M39.7908253,63.9996464 C38.4920558,63.981287 37.3720361,63.0269702 37.0751389,61.6857362 C36.7782418,60.3445021 37.380801,58.9611889 38.5361506,58.3316479 C39.6915002,57.7021069 41.1025938,57.9881965 41.9575974,59.0253227 L41.4233248,59.6235009 C41.0215915,59.092083 40.4200358,58.7746968 39.7781046,58.7554679 C39.237945,58.7738724 38.7277616,59.0232005 38.363588,59.4467461 C37.9994144,59.8702918 37.8122082,60.4320503 37.8445467,61.004258 C37.8180606,61.584745 38.0147406,62.1517932 38.3895892,62.57567 C38.7644378,62.9995468 39.2853787,63.2439805 39.8332279,63.2530481 C40.4748286,63.2343865 41.0776137,62.9229008 41.4869287,62.3985078 L42,62.911232 C41.4588945,63.6127607 40.6452613,64.0136208 39.7908253,63.9996464 Z M48,63.9866667 L46.9982348,63.9866667 L44.9814651,61.3555556 L43.8384819,62.52 L43.8384819,64 L43,64 L43,56 L43.8384819,56 L43.8384819,61.5288889 L46.8790821,58.3377778 L47.9249779,58.3377778 L45.5595763,60.7733333 L48,63.9866667 Z M53.4282018,62.3985419 C53.3962884,62.6427988 53.4737832,62.8888742 53.6372831,63.0624541 C53.8007829,63.236034 54.0311196,63.3167685 54.2587322,63.280276 C54.509617,63.2826854 54.7573087,63.2198924 54.9805951,63.0972746 L54.9805951,63.7752116 C54.7047095,63.9272968 54.3981851,64.004421 54.087969,63.9998043 C53.2923674,63.9998043 52.690815,63.583892 52.690815,62.5025199 L52.690815,59.2999951 L52,59.2999951 L52,58.6012624 L52.690815,58.6012624 L52.690815,57 L53.4282018,57 L53.4282018,58.6012624 L55,58.6012624 L55,59.2999951 L53.4282018,59.2999951 L53.4282018,62.3985419 Z M58.9909551,63.9999146 C57.3364732,63.9949461 55.9983454,62.6514497 56.0000015,60.9969611 C56.0016577,59.3424725 57.3424725,58.0016577 58.9969611,58.0000015 C60.6514497,57.9983454 61.9949461,59.3364732 61.9999146,60.9909551 C62.0059607,61.790819 61.6908881,62.5596775 61.1252828,63.1252828 C60.5596775,63.6908881 59.790819,64.0059607 58.9909551,63.9999146 Z M58.9909551,58.7555996 C58.4088319,58.7580499 57.8535987,59.000954 57.4567055,59.4268052 C57.0598122,59.8526563 56.8565455,60.4235932 56.8950282,61.0044482 C56.8694435,61.5858174 57.0801344,62.1528103 57.4791549,62.5763989 C57.8781754,62.9999875 58.4315838,63.2441404 59.0134436,63.2532968 C59.5917006,63.2527593 60.1444944,63.0153611 60.5430591,62.5964008 C60.9416237,62.1774405 61.1511616,61.6134966 61.1228636,61.0359321 C61.1521891,60.4482791 60.9418893,59.8738643 60.5400617,59.4440613 C60.138234,59.0142584 59.5792504,58.7658321 58.9909551,58.7555996 Z M72.5868006,58.016185 C72.6019879,58.8401663 72.1280924,59.5834377 71.4074605,59.865896 C72.2682927,60.1526012 73,60.6982659 73,61.8080925 C73,63.1953757 71.928264,64 70.3012912,64 L67,64 L67,56 L70.1635581,56 C71.6312769,56 72.5868006,56.7768786 72.5868006,58.016185 Z M71.7259684,58.1410405 C71.7259684,57.3410405 71.1406026,56.8277457 70.0774749,56.8277457 L67.8134864,56.8277457 L67.8134864,59.6023121 L70.0129125,59.6023121 C71.0373027,59.5606936 71.7388809,59.0705202 71.7388809,58.1225434 L71.7259684,58.1410405 Z M72.1563845,61.7618497 C72.1563845,60.883237 71.4763271,60.3745665 70.1807747,60.3745665 L67.830703,60.3745665 L67.830703,63.1953757 L70.3271162,63.1953757 C71.4505022,63.1815029 72.1520803,62.6404624 72.1520803,61.7433526 L72.1563845,61.7618497 Z M79.1599281,58 L80,58 L80,63.874998 L79.1599281,63.874998 L79.1599281,62.8528588 C78.7636195,63.5785704 78.0079588,64.0198632 77.1967655,63.9993122 C75.8086253,63.9993122 75,63.0462365 75,61.6465505 L75,58 L75.853549,58 L75.853549,61.4301516 C75.853549,62.5213542 76.4330638,63.2027803 77.4393531,63.2027803 C77.9116804,63.2113924 78.3660525,63.0174286 78.6927618,62.6677211 C79.0194711,62.3180137 79.1888231,61.8443473 79.1599281,61.3610882 L79.1599281,58 Z M83.6774848,64 C82.7053944,63.986193 81.765025,63.6853825 81,63.1435115 L81.5070994,62.5206107 C82.1456955,62.9810174 82.9318255,63.2428638 83.7484787,63.2671756 C84.5243408,63.2671756 85.0872211,62.9053435 85.0872211,62.351145 C85.0872211,61.7603053 84.326572,61.5358779 83.474645,61.3206107 C82.4604462,61.059542 81.3346856,60.7435115 81.3346856,59.6717557 C81.3346856,58.6641221 82.2576065,58 83.535497,58 C84.362401,58.0134063 85.1686564,58.2355197 85.8630832,58.6412214 L85.4269777,59.2961832 C84.858384,58.9512068 84.1946244,58.7561276 83.510142,58.7328244 C82.7494929,58.7328244 82.2576065,59.0946565 82.2576065,59.5801527 L82.2576065,59.6030534 C82.2576065,60.1572519 83.0588235,60.3725191 83.9259635,60.610687 C84.9401623,60.880916 86,61.2335878 86,62.2824427 L86,62.3053435 C85.979716,63.3587786 84.9705882,64 83.6774848,64 Z M87,56.9518414 L87,56 L88,56 L88,56.9518414 L87,56.9518414 Z M87.0552995,64 L87.0552995,58.2164306 L87.9308756,58.2164306 L87.9308756,64 L87.0552995,64 Z M89.8520179,64 L89,64 L89,58.1252942 L89.8520179,58.1252942 L89.8520179,59.1473825 C90.2446242,58.4186668 91.0008985,57.9762439 91.8116592,58.0009862 C93.1928251,58.0009862 94,58.9540145 94,60.3536309 L94,64 L93.1479821,64 L93.1479821,60.565415 C93.1479821,59.4742666 92.573991,58.7928744 91.5650224,58.7928744 C91.0939,58.7841631 90.6407213,58.9782521 90.3152888,59.3281149 C89.9898564,59.6779777 89.821865,60.1516903 89.8520179,60.634475 L89.8520179,64 Z M97.669233,63.2520247 C98.3035128,63.2576169 98.9083901,62.9617167 99.3251953,62.4419438 L99.8178441,62.9189914 C99.2829918,63.6233326 98.4801546,64.0215483 97.6402537,63.9990993 C96.9184102,64.001266 96.2274042,63.6811702 95.7288566,63.1136799 C95.2303091,62.5461896 94.9679465,61.7810782 95.0031336,60.9972994 C95.0031336,59.3321331 96.0753692,58 97.536756,58 C99.1016404,58 100,59.3501349 100,61.0423039 C100,61.1188116 100,61.2088206 100,61.3078305 L95.8104153,61.3078305 C95.8418536,62.3969568 96.6668926,63.2598903 97.669233,63.2520247 Z M99.2134179,60.6777675 C99.1306198,59.6291628 98.5800123,58.7200719 97.5243363,58.7200719 C96.6052772,58.7200719 95.909773,59.5526551 95.8104153,60.6777675 L99.2134179,60.6777675 Z M103.677485,64 C102.705193,63.987204 101.764477,63.6862824 101,63.1435115 L101.507099,62.5206107 C102.144786,62.9824718 102.931472,63.2445031 103.748479,63.2671756 C104.524341,63.2671756 105.087221,62.9053435 105.087221,62.351145 C105.087221,61.7603053 104.321501,61.5358779 103.469574,61.3206107 C102.455375,61.059542 101.329615,60.7435115 101.329615,59.6717557 C101.329615,58.6641221 102.257606,58 103.535497,58 C104.362273,58.0141336 105.168313,58.2361876 105.863083,58.6412214 L105.421907,59.2961832 C104.85524,58.9511344 104.193075,58.7560077 103.510142,58.7328244 C102.744422,58.7328244 102.257606,59.0946565 102.257606,59.5801527 L102.257606,59.6030534 C102.257606,60.1572519 103.058824,60.3725191 103.920892,60.610687 C104.935091,60.880916 106,61.2335878 106,62.2824427 L106,62.3053435 C105.979716,63.3587786 104.965517,64 103.677485,64 Z M108.677485,64 C107.705394,63.986193 106.765025,63.6853825 106,63.1435115 L106.507099,62.5206107 C107.143229,62.9818346 107.92808,63.243848 108.743408,63.2671756 C109.51927,63.2671756 110.08215,62.9053435 110.08215,62.351145 C110.08215,61.7603053 109.321501,61.5358779 108.469574,61.3206107 C107.455375,61.059542 106.329615,60.7435115 106.329615,59.6717557 C106.329615,58.6641221 107.257606,58 108.530426,58 C109.357458,58.0126735 110.163932,58.234847 110.858012,58.6412214 L110.421907,59.2961832 C109.85367,58.9505453 109.189696,58.7554031 108.505071,58.7328244 C107.744422,58.7328244 107.257606,59.0946565 107.257606,59.5801527 L107.257606,59.6030534 C107.257606,60.1572519 108.058824,60.3725191 108.920892,60.610687 C109.935091,60.880916 111,61.2335878 111,62.2824427 L111,62.3053435 C110.984787,63.3587786 109.970588,64 108.677485,64 Z"/>
    <path id="symbol" fill="#8DC23F" d="M102.444445,52 L100.538889,52 C94.7213828,51.9928627 90.0071432,47.2820341 90.0000007,41.4687372 L90.0000007,13.1910659 C89.9975985,5.91832836 95.8880646,0.0166699798 103.166049,7.08175572e-07 L104.799383,7.08175572e-07 C108.300755,-0.00114513739 111.65905,1.38825584 114.134894,3.86230887 C116.610739,6.33636189 118.001146,9.69222673 117.999999,13.1910659 L117.999999,27.0859424 C117.999999,27.8371193 117.390609,28.4460686 116.638888,28.4460686 C115.887167,28.4460686 115.277777,27.8371193 115.277777,27.0859424 L115.277777,13.1910659 C115.27063,7.42139429 110.590518,2.74660041 104.816667,2.7418424 L103.166049,2.7418424 C97.398948,2.75610861 92.7293456,7.42812406 92.7222228,13.1910659 L92.7222228,41.4860086 C92.7293594,45.7969532 96.224823,49.2898876 100.538889,49.2970191 L102.444445,49.2970191 C106.759496,49.2922597 110.256348,45.7979377 110.261111,41.4860086 L110.261111,25.7128626 C110.263404,24.0596375 109.608091,22.4732766 108.439453,21.3030546 C107.270815,20.1328326 105.68467,19.4746976 104.030247,19.4735535 L103.831482,19.4735535 C102.090227,19.4709127 100.419861,20.1625096 99.190741,21.3950017 C97.9626913,22.6137314 97.2734399,24.2726458 97.2765436,26.0021593 L97.2765436,39.4652497 C97.2765436,40.2164266 96.6671534,40.8253759 95.9154325,40.8253759 C95.1637117,40.8253759 94.5543215,40.2164266 94.5543215,39.4652497 L94.5543215,25.9892057 C94.5566038,23.5336522 95.5364483,21.1798963 97.2776889,19.447206 C99.0189295,17.7145157 101.378483,16.7452717 103.835802,16.7533012 L104.030247,16.7533012 C108.978684,16.7580673 112.987656,20.7680039 112.987654,25.7128626 L112.987654,41.4816908 C112.97337,47.2916117 108.258588,51.9952592 102.444445,52 L102.444445,52 Z"/>
    <path id="name" fill="#0092AA" d="M25.81776,32.1543092 L31.9964001,32.1543092 C32.2837288,32.1422842 32.55885,32.2678772 32.7325785,32.4903751 C32.9018426,32.7068617 32.9927279,32.9715522 32.9911173,33.243333 C32.9956662,33.5365427 32.9052303,33.8237328 32.7325785,34.0643548 C32.5626739,34.2932705 32.2869201,34.4255261 31.9964001,34.4174368 L25.81776,34.4174368 L25.81776,50.9527317 C25.8165939,51.2606381 25.650628,51.545816 25.3795586,51.7056895 C25.0739113,51.907371 24.7104191,52.0101062 24.3410212,51.9992155 C23.9988729,52.0093457 23.6634119,51.9057946 23.3901242,51.7056895 C23.1416548,51.5312678 22.9961639,51.2503736 23.0001249,50.9527317 L23.0001249,27.704626 C22.9940816,26.6737164 23.2074129,25.6527034 23.6267529,24.7055566 C24.0262219,23.7973275 24.5902003,22.9659884 25.2919183,22.250999 C25.9911936,21.5567599 26.8212749,20.9993209 27.7370823,20.6089553 C28.6690814,20.2051284 29.6787101,19.9977924 30.6993239,20.0006335 L31.7992095,20.0006335 C32.1357579,19.9893634 32.4589463,20.1289807 32.6756123,20.3792394 C32.8891219,20.625439 33.0042258,20.9380126 32.9998814,21.2598172 C33.0027735,21.5723996 32.8873881,21.8751414 32.6756123,22.1106171 C32.4601811,22.3624632 32.1361462,22.5024463 31.7992095,22.489223 L31.045503,22.489223 C30.3309852,22.4832568 29.6236999,22.6284201 28.9728103,22.9146229 C28.3591883,23.1775058 27.8018003,23.5497857 27.329555,24.0121547 C26.8683739,24.4772577 26.4946417,25.0171597 26.2252874,25.6074044 C25.953741,26.2095359 25.8149266,26.8601474 25.81776,27.5174501 L25.81776,32.1543092 Z M37.820219,32.1648565 L44.004251,32.1648565 C44.2918305,32.152838 44.5671918,32.2783642 44.7410718,32.5007439 C44.9104837,32.7171154 45.0014482,32.9816651 44.9998363,33.2533015 C45.0043891,33.5463554 44.9138743,33.8333929 44.7410718,34.073887 C44.571019,34.3026811 44.2950245,34.4348663 44.004251,34.4267813 L37.820219,34.4267813 L37.820219,50.9532883 C37.8190519,51.2610311 37.6529411,51.5460574 37.3816352,51.705846 C37.0757211,51.9074202 36.7119117,52.0101009 36.3421915,51.9992159 C35.9997446,52.0093408 35.6639908,51.9058446 35.3904646,51.705846 C35.1417784,51.5315169 34.9961606,51.250772 35.000125,50.9532883 L35.000125,27.7175382 C34.9940764,26.6871765 35.2075939,25.6667061 35.6272999,24.7200627 C36.0271175,23.8123163 36.591588,22.981419 37.2939184,22.2668097 C37.9909588,21.5672841 38.8203417,21.004323 39.7368304,20.6086317 C40.6696428,20.2050194 41.6801526,19.9977936 42.701657,20.0006331 L43.7849591,20.0006331 C44.1218013,19.989369 44.4452717,20.1289122 44.6621268,20.3790378 C44.8758227,20.6251066 44.9910271,20.9375141 44.9866788,21.2591477 C44.9895734,21.5715639 44.8740874,21.8741449 44.6621268,22.1094953 C44.4465075,22.3612076 44.1221898,22.5011163 43.7849591,22.4879 L43.0481383,22.4879 C42.3329969,22.481937 41.6250944,22.6270232 40.9736368,22.9130739 C40.3596284,23.1813561 39.8031788,23.5592496 39.3333332,24.0270293 C38.8717497,24.4918852 38.4976913,25.0315002 38.228102,25.6214312 C37.9563187,26.2232427 37.8173831,26.8735084 37.820219,27.5304617 L37.820219,32.1648565 Z M49.0483921,22.0005761 C49.5634046,21.9931514 50.0607243,22.1784348 50.4323912,22.5162043 C50.8005364,22.8392426 51.0067592,23.2950206 50.9998309,23.7703168 C51.002902,24.2499737 50.7977304,24.7097485 50.4323912,25.0419082 C50.0680041,25.3927086 49.5678905,25.586928 49.0483921,25.579385 C48.5061591,25.5919058 47.9811889,25.3983561 47.5905797,25.0419082 C47.216734,24.7135164 47.0029936,24.2532496 47.0000734,23.7703168 C46.9954334,23.2909173 47.2109238,22.8332606 47.5905797,22.5162043 C47.988321,22.172981 48.5104958,21.9882878 49.0483921,22.0005761 Z M49.0483921,31.6139823 C49.4270065,31.6009235 49.8006889,31.698565 50.1186848,31.893645 C50.3914773,32.0571826 50.5541881,32.3438772 50.5477245,32.6496083 L50.5477245,50.8801221 C50.5380497,51.1867515 50.3797832,51.4720633 50.1186848,51.6535643 C49.818126,51.8881122 49.43761,52.0108426 49.0483921,51.998773 C48.6657081,52.0137977 48.291318,51.8903834 48.0011661,51.6535643 C47.7491253,51.4668455 47.5985017,51.1831084 47.5905797,50.8801221 L47.5905797,32.6496083 C47.5801084,32.3472992 47.7354137,32.0613541 48.0011661,31.893645 C48.3095418,31.6964534 48.6766854,31.5984074 49.0483921,31.6139823 Z M61.9978992,52.9971563 C60.783982,53.0274955 59.5756683,52.8148297 58.4375431,52.3705258 C57.4915018,51.9963568 56.6362087,51.4067111 55.9331895,50.6440055 C55.2713665,49.9018685 54.7726865,49.0163315 54.4723166,48.0498428 C54.1476414,46.9956588 53.9883464,45.8930762 54.0006633,44.7852294 L54.0006633,40.1621862 C53.9904306,39.0688364 54.14973,37.9810236 54.4723166,36.9413931 C54.7718236,35.9793252 55.2626679,35.0950703 55.9123199,34.3472305 C56.6059924,33.5851286 57.4550571,32.9978543 58.3958039,32.6294742 C59.5339291,32.1851703 60.7422428,31.9725045 61.9561599,32.0028437 C62.7599378,31.9930476 63.5618042,32.0872403 64.3436437,32.2832937 C64.9777649,32.4393041 65.5926169,32.6716282 66.1759958,32.9756546 C66.619585,33.1947711 67.0180331,33.5029245 67.3488681,33.8827352 C67.6002226,34.1152324 67.7493435,34.4460967 67.7611874,34.7975745 C67.7730312,35.1490522 67.6465536,35.4901526 67.4114769,35.7407165 C67.2135554,36.0154933 66.9048271,36.1775539 66.5766924,36.1789196 C66.3551166,36.1683975 66.144001,36.0769509 65.9798214,35.9203798 C65.7277157,35.7172077 65.45962,35.5368956 65.1784283,35.3813899 C64.7770761,35.1631211 64.3580341,34.9827477 63.9262515,34.8424 C63.3258068,34.6516222 62.7001697,34.5628613 62.0730298,34.5794782 C60.2615473,34.5794782 58.9091964,35.0775691 58.0159769,36.0737509 C57.1227575,37.0699327 56.677539,38.4312838 56.6803217,40.1578042 L56.6803217,44.7808474 C56.6803217,46.53366 57.1324966,47.9096178 58.0368465,48.908721 C58.9411965,49.9078242 60.3005039,50.4044544 62.114769,50.3986117 C63.2363834,50.4434493 64.3477555,50.1597189 65.3245156,49.5791718 C65.6039401,49.4123287 65.8717428,49.2248919 66.1259087,49.0182718 C66.303633,48.8566933 66.5294765,48.765261 66.7645189,48.7597319 C67.1166861,48.7406214 67.4553059,48.9044477 67.6702601,49.1979351 C67.8765103,49.4598844 67.9926727,49.7871536 68,50.1269257 C67.9757828,50.480317 67.8269646,50.811542 67.5826077,51.0559164 C67.2318134,51.4368211 66.8208802,51.7511218 66.3679962,51.9849071 C65.766481,52.3033099 65.1300915,52.5431853 64.4730353,52.6991782 C63.6621338,52.9010158 62.8312709,53.0010422 61.9978992,52.9971563 Z M79.08807,32.0175958 C80.1180257,32.0142352 81.1390812,32.212031 82.0960561,32.6002939 C83.0303223,32.9721694 83.8864287,33.5223505 84.6184673,34.2213339 C85.3435193,34.928318 85.9272412,35.7719311 86.3373164,36.7054682 C86.7828728,37.7020891 87.0073577,38.7866351 86.9947762,39.8818303 C87.025924,40.5459394 86.9175071,41.2091667 86.6767891,41.8270783 C86.501999,42.243601 86.2161648,42.6018122 85.8517415,42.861039 C85.4967513,43.0980002 85.0887884,43.2396623 84.6657356,43.2728708 C84.2360233,43.3166826 83.7590427,43.3385886 83.3078448,43.3385886 L73.7467462,43.3385886 L73.7467462,44.9201979 C73.6825352,46.5054811 74.3583306,48.0281422 75.5687264,49.0253721 C77.8821148,50.8650437 81.0461029,51.1284165 83.6215347,49.6956941 C83.9910873,49.4766346 84.3004802,49.2575752 84.5540104,49.09109 C84.7591397,48.9214812 85.0121077,48.8232271 85.2759271,48.8106939 C85.622936,48.8081102 85.9471476,48.9866095 86.1353517,49.2838623 C86.3377053,49.531291 86.4567135,49.8384717 86.4748244,50.1601001 C86.4392195,50.4952486 86.2867233,50.8062078 86.0451121,51.036338 C85.672038,51.4204918 85.2357,51.7348696 84.7559752,51.9651501 C84.1192399,52.2817839 83.4507123,52.5271034 82.7621101,52.6968087 C81.8940264,52.9091451 81.0034294,53.0106903 80.1107853,52.9991107 C78.8657561,53.0131054 77.6270905,52.816194 76.4453394,52.4164125 C75.3868576,52.0616156 74.4081747,51.4956825 73.5662671,50.7515607 C72.7620316,50.0369259 72.1185667,49.1537198 71.6798301,48.1622779 C71.2154654,47.1015331 70.9837588,45.9502392 71.0008847,44.7887622 L71.0008847,39.9694541 C70.9937595,38.9124074 71.2106993,37.8662674 71.6368589,36.9026217 C72.953877,33.9082586 75.8780023,31.9865366 79.0966643,32.000071 L79.08807,32.0175958 Z M82.2249698,41.2619049 C82.8034573,41.3146515 83.3856665,41.2182293 83.9180362,40.9815088 C84.2016463,40.7974989 84.3477485,40.3988107 84.3477485,39.7942066 C84.3476527,39.1051092 84.2178224,38.422436 83.9653046,37.7832407 C83.7137293,37.1368456 83.3481734,36.5428895 82.8867267,36.0307651 C81.3700255,34.4053818 79.0288777,33.8987428 76.9953712,34.755839 C76.373844,35.0214337 75.8057097,35.4016586 75.3194932,35.8774234 C74.8345438,36.3585594 74.4462847,36.931507 74.1764585,37.5641813 C73.8916987,38.2102131 73.7452094,38.9106889 73.7467462,39.618959 L73.7467462,41.2575237 L82.2249698,41.2619049 Z M117.359912,32.2731157 C117.692517,32.2628711 118.019682,32.3586787 118.293456,32.5464964 C118.539641,32.7114404 118.682749,32.9907847 118.672037,33.2854785 L118.672037,35.2034146 C119.220877,34.3211798 119.95449,33.5665409 120.823061,32.9907399 C121.870795,32.3033776 123.108711,31.9583804 124.363648,32.0040066 C125.38721,32.006324 126.398744,32.2232093 127.332062,32.640471 C128.248976,33.0362546 129.077977,33.6082341 129.771324,34.3234706 C131.215813,35.8249817 132.015043,37.8257545 131.999785,39.9021446 L131.999785,44.4940853 C132.000169,45.5300896 131.790967,46.5556161 131.384592,47.5098156 C130.991535,48.4557247 130.430528,49.3238273 129.728303,50.0727592 C129.041308,50.7984578 128.229961,51.3972338 127.332062,51.8411903 C125.314872,52.8368755 122.922438,52.7253731 121.00805,51.5464518 C120.075999,50.9908052 119.301706,50.2087679 118.758078,49.2739751 L118.758078,60.9439118 C118.740181,61.2317276 118.59136,61.4958202 118.353685,61.661536 C118.074338,61.8894873 117.721342,62.0093536 117.359912,61.9989902 C117.003241,62.0123962 116.654571,61.8919127 116.383347,61.661536 C116.156572,61.4890931 116.016769,61.2270638 116.000464,60.9439118 L116.000464,33.2854785 C115.990699,32.9899601 116.135526,32.7104383 116.383347,32.5464964 C116.670653,32.3531751 117.013215,32.2572782 117.359912,32.2731157 Z M129.23787,39.9021446 C129.232605,39.219202 129.08618,38.5446047 128.807665,37.9201349 C128.532487,37.2870677 128.144867,36.7083096 127.66332,36.2115058 C127.173304,35.7142193 126.597848,35.3077443 125.96401,35.0111938 C125.315572,34.7024874 124.605239,34.5433201 123.886121,34.5455924 C123.239294,34.5444292 122.598224,34.6662252 121.997521,34.9044045 C121.386861,35.1437076 120.830911,35.502515 120.362742,35.959483 C119.868664,36.4407589 119.472803,37.0122139 119.196887,37.6424826 C118.895121,38.3558088 118.748519,39.1243836 118.766682,39.897873 L118.766682,45.7969149 C118.800862,46.2139931 118.931917,46.6175332 119.149564,46.975869 C119.433687,47.4934269 119.798084,47.9633549 120.229379,48.3684017 C120.71771,48.8314591 121.276708,49.2149399 121.885668,49.5046401 C122.540546,49.8163288 123.258887,49.9741797 123.985068,49.9659699 C124.684384,49.9681376 125.374799,49.8102771 126.002729,49.5046401 C126.631694,49.2013375 127.200134,48.7874343 127.680528,48.2829703 C128.162446,47.7719352 128.549826,47.1805213 128.824873,46.535897 C129.105402,45.8895374 129.251722,45.1936282 129.255078,44.4898137 L129.23787,39.9021446 Z M140.83575,50.6236928 C142.50453,50.6236928 143.67803,50.3212377 144.356251,49.7163276 C144.999501,49.17483 145.368197,48.3831114 145.364658,47.5509247 C145.414066,46.7414776 145.120087,45.9480645 144.552578,45.3592213 C143.972534,44.8193031 143.292431,44.3937259 142.54915,44.105567 C141.695559,43.7696127 140.820657,43.4884829 139.929969,43.2639529 C139.023193,43.0350178 138.144839,42.7086788 137.310788,42.2908366 C136.537513,41.90131 135.85641,41.3561658 135.311821,40.6908932 C134.720534,39.8736158 134.432332,38.8818965 134.49528,37.8811295 C134.497679,37.1739595 134.62448,36.4725176 134.870086,35.8077781 C135.12899,35.1006575 135.541627,34.4574498 136.079282,33.9229132 C136.696073,33.3231664 137.430921,32.8533301 138.238879,32.5421401 C139.26339,32.1571525 140.354996,31.9739536 141.451503,32.002981 C142.174449,32.0007261 142.896007,32.0653007 143.606638,32.1958509 C144.24111,32.3078344 144.867199,32.4616005 145.480669,32.6561086 C145.960931,32.8068817 146.413032,33.033393 146.819262,33.3267699 C147.099885,33.4974782 147.28562,33.7848994 147.323466,34.1070163 C147.293517,34.4320863 147.179893,34.7443308 146.993279,35.0143815 C146.840991,35.3474292 146.508092,35.5654538 146.13658,35.5754575 C145.904796,35.5591209 145.679431,35.4933003 145.476207,35.3825876 C145.21295,35.2510854 144.887226,35.1151998 144.507958,34.9705474 C144.069655,34.8095732 143.622803,34.6720253 143.169364,34.5585072 C142.608776,34.4235986 142.033086,34.3587957 141.455965,34.3656373 C140.75135,34.3468265 140.049312,34.4568179 139.385607,34.6900094 C138.880862,34.874036 138.417195,35.1523984 138.020242,35.5097064 C137.686212,35.8155367 137.429522,36.1937924 137.27063,36.6143249 C137.13243,36.973192 137.05846,37.3528395 137.051993,37.736477 C137.008901,38.4663179 137.322042,39.1727213 137.895307,39.6388756 C138.499499,40.1077296 139.183977,40.4669504 139.916583,40.69966 C140.722713,40.9743535 141.595774,41.2344356 142.535764,41.4799064 C143.450108,41.7137449 144.330294,42.0613874 145.154945,42.5143904 C145.96237,42.9613319 146.655231,43.5835214 147.180683,44.3335041 C147.766585,45.2578292 148.050008,46.3363718 147.992762,47.4238059 C148.06451,48.995057 147.380371,50.5080756 146.145504,51.509141 C144.913998,52.5027131 143.167877,52.9994992 140.907142,52.9994992 C139.959784,53.0080719 139.014718,52.9065485 138.091634,52.6970442 C137.338088,52.5309825 136.607191,52.2779077 135.914188,51.9430982 C135.384718,51.6918792 134.906778,51.3471652 134.504203,50.9261479 C134.212852,50.6518133 134.033547,50.2823703 134,49.8872805 C134.003572,49.5735372 134.103066,49.2680936 134.285567,49.0105991 C134.429321,48.7458883 134.707525,48.5782164 135.012869,48.5722584 C135.29207,48.5920533 135.555539,48.7067446 135.758019,48.8966305 C136.083116,49.1550482 136.429348,49.3866924 136.793198,49.5892088 C137.297961,49.8682804 137.828291,50.1001582 138.3772,50.2817871 C139.172036,50.5276485 140.00268,50.6431645 140.83575,50.6236928 Z M9.43099924,51.9999906 L9.23062472,51.9999906 C4.13864583,52.0023699 0.00741052447,48.0190445 3.85629017e-05,43.0998856 L3.85629017e-05,29.2012683 C-0.00718280318,26.757669 1.00007897,24.4132982 2.79637629,22.6928783 C4.59358098,20.9611364 7.03068514,19.9921362 9.56903502,20.0000481 L9.76940954,20.0000481 C12.2198754,20.0023287 14.5690387,20.9449228 16.3001097,22.6204702 C18.0311806,24.2960177 19.0023587,26.5672661 18.9999957,28.9345662 L18.9999957,42.8116754 C18.9754655,47.8982312 14.6963031,52.0071567 9.43099924,51.9999906 Z M9.56903502,22.7487997 C7.7737098,22.7414093 6.04939345,23.4256858 4.77785764,24.6501271 C3.5238271,25.8555219 2.81601238,27.4922919 2.80973459,29.2012683 L2.80973459,43.082679 C2.80855216,44.7281597 3.48465714,46.306574 4.68906404,47.4701048 C5.89347093,48.6336357 7.52733657,49.2867945 9.23062472,49.2856522 L9.43099924,49.2856522 C13.151483,49.2927976 16.1755724,46.3886629 16.1902997,42.7944688 L16.1902997,28.9345662 C16.1756055,25.5174451 13.3066049,22.7535031 9.76940954,22.7487997 L9.56903502,22.7487997 Z"/>
</svg>
