<svg xmlns="http://www.w3.org/2000/svg" viewBox="0 0 148 64"><path id="tagline" fill="#77787B" d="M4.915 64c-2.417 0-3.912-1.763-3.912-3.98a3.874 3.874 0 011.075-2.83 3.855 3.855 0 012.78-1.186 4.045 4.045 0 012.893 1.044l-.561.66a3.276 3.276 0 00-2.341-.892c-1.705 0-2.925 1.441-2.925 3.173 0 1.847 1.18 3.212 3.045 3.212a3.6 3.6 0 002.225-.772v-1.914H4.826v-.78H8v3.07A4.65 4.65 0 014.915 64zm7.738-.748a2.118 2.118 0 001.656-.81l.488.477c-.534.705-1.337 1.104-2.177 1.08a2.539 2.539 0 01-1.898-.894 3.01 3.01 0 01-.719-2.108c0-1.665 1.077-2.997 2.538-2.997C14.1 58 15 59.35 15 61.042v.266h-4.206c.033 1.088.857 1.95 1.859 1.944zm1.544-2.574c-.083-1.049-.634-1.958-1.685-1.958-.92 0-1.615.833-1.718 1.958h3.403zm3.231 1.72a.817.817 0 00.21.666.7.7 0 00.625.216c.25.002.495-.06.718-.183v.678a1.78 1.78 0 01-.893.225c-.796 0-1.397-.416-1.397-1.498V59.3H16v-.699h.69V57h.738v1.601H19v.699h-1.572v3.099zm12.14-4.382c.018.818-.445 1.56-1.154 1.85.857.287 1.586.832 1.586 1.942C30 63.195 28.933 64 27.313 64H24v-8h3.154c1.462 0 2.413.777 2.413 2.016zm-.858.125c0-.8-.579-1.313-1.637-1.313h-2.246v2.774h2.19c1.003-.041 1.702-.531 1.702-1.48l-.009.019zm.429 3.62c0-.878-.678-1.386-1.972-1.386h-2.34v2.82h2.486c1.123-.013 1.821-.555 1.821-1.452l.005.019zm2.62-2.58l-.255-.704A4.593 4.593 0 0133.576 58C35.129 58 36 58.81 36 60.336v3.545h-.813v-.882a2.484 2.484 0 01-2.062 1c-1.058 0-2.125-.605-2.125-1.818s.991-1.909 2.433-1.909a5.98 5.98 0 011.755.25v-.204c0-1.04-.63-1.582-1.697-1.582a3.961 3.961 0 00-1.732.446zm.098 2.964c0 .74.66 1.163 1.433 1.163 1.05 0 1.906-.65 1.906-1.568v-.559a5.709 5.709 0 00-1.674-.25c-1.067 0-1.665.473-1.665 1.214zM39.791 64c-1.299-.019-2.419-.973-2.716-2.314-.297-1.341.306-2.725 1.461-3.354 1.156-.63 2.567-.344 3.422.693l-.535.599a2.147 2.147 0 00-1.645-.869c-.54.019-1.05.268-1.414.692a2.202 2.202 0 00-.52 1.557c-.026.58.17 1.148.546 1.572.374.424.895.668 1.443.677a2.182 2.182 0 001.654-.854l.513.512A2.737 2.737 0 0139.79 64zM48 63.987h-1.002l-2.017-2.631-1.143 1.164V64H43v-8h.838v5.529l3.041-3.191h1.046l-2.365 2.435L48 63.987zm5.428-1.588a.817.817 0 00.21.663.7.7 0 00.62.218c.252.003.5-.06.723-.183v.678c-.276.152-.583.23-.893.225-.796 0-1.397-.416-1.397-1.497V59.3H52v-.699h.69V57h.738v1.601H55v.699h-1.572v3.099zm5.563 1.6A3 3 0 1162 60.992 2.986 2.986 0 0158.99 64zm0-5.243a2.11 2.11 0 00-2.096 2.248 2.154 2.154 0 002.118 2.25 2.114 2.114 0 002.11-2.218 2.172 2.172 0 00-2.132-2.28zm13.596-.74c.015.824-.459 1.567-1.18 1.85.861.287 1.593.832 1.593 1.942C73 63.195 71.928 64 70.301 64H67v-8h3.164c1.467 0 2.423.777 2.423 2.016zm-.861.125c0-.8-.585-1.313-1.649-1.313h-2.264v2.774h2.2c1.024-.041 1.726-.531 1.726-1.48l-.013.019zm.43 3.62c0-.878-.68-1.386-1.975-1.386h-2.35v2.82h2.496c1.124-.013 1.825-.555 1.825-1.452l.004.019zM79.16 58H80v5.875h-.84v-1.022a2.178 2.178 0 01-1.963 1.146C75.809 64 75 63.046 75 61.647V58h.854v3.43c0 1.091.58 1.773 1.585 1.773.473.008.927-.186 1.254-.535.326-.35.496-.824.467-1.307V58zm4.517 6A4.76 4.76 0 0181 63.144l.507-.623c.639.46 1.425.722 2.241.746.776 0 1.34-.362 1.34-.916 0-.59-.761-.815-1.613-1.03-1.015-.261-2.14-.577-2.14-1.65 0-1.007.923-1.671 2.2-1.671a4.777 4.777 0 012.328.641l-.436.655a3.962 3.962 0 00-1.917-.563c-.76 0-1.252.362-1.252.847v.023c0 .554.8.77 1.668 1.008 1.014.27 2.074.623 2.074 1.671v.023C85.98 63.36 84.97 64 83.677 64zM87 56.952V56h1v.952h-1zM87.055 64v-5.784h.876V64h-.876zm2.797 0H89v-5.875h.852v1.022a2.156 2.156 0 011.96-1.146c1.38 0 2.188.953 2.188 2.353V64h-.852v-3.435c0-1.09-.574-1.772-1.583-1.772a1.665 1.665 0 00-1.25.535c-.325.35-.493.824-.463 1.306V64zm7.817-.748c.635.006 1.24-.29 1.656-.81l.493.477c-.535.704-1.338 1.103-2.178 1.08a2.536 2.536 0 01-1.911-.885 3.01 3.01 0 01-.726-2.117c0-1.665 1.072-2.997 2.534-2.997 1.565 0 2.463 1.35 2.463 3.042v.266h-4.19c.032 1.089.857 1.952 1.86 1.944zm1.544-2.574c-.082-1.049-.633-1.958-1.689-1.958-.919 0-1.614.833-1.714 1.958h3.403zM103.677 64a4.743 4.743 0 01-2.677-.856l.507-.623a4.019 4.019 0 002.241.746c.776 0 1.34-.362 1.34-.916 0-.59-.766-.815-1.618-1.03-1.015-.261-2.14-.577-2.14-1.65 0-1.007.928-1.671 2.205-1.671a4.794 4.794 0 012.328.641l-.441.655a3.94 3.94 0 00-1.912-.563c-.766 0-1.252.362-1.252.847v.023c0 .554.8.77 1.663 1.008 1.014.27 2.079.623 2.079 1.671v.023c-.02 1.054-1.034 1.695-2.323 1.695zm5 0a4.76 4.76 0 01-2.677-.856l.507-.623a4.013 4.013 0 002.236.746c.776 0 1.34-.362 1.34-.916 0-.59-.761-.815-1.613-1.03-1.015-.261-2.14-.577-2.14-1.65 0-1.007.928-1.671 2.2-1.671a4.76 4.76 0 012.328.641l-.436.655a3.946 3.946 0 00-1.917-.563c-.76 0-1.247.362-1.247.847v.023c0 .554.8.77 1.663 1.008 1.014.27 2.079.623 2.079 1.671v.023c-.015 1.054-1.03 1.695-2.323 1.695z"/><path id="symbol" fill="#8DC23F" d="M102.444 52h-1.905C94.72 51.993 90.007 47.282 90 41.469V13.19C89.998 5.918 95.888.017 103.166 0h1.633a13.201 13.201 0 019.336 3.862 13.182 13.182 0 013.865 9.33v13.894a1.36 1.36 0 01-2.722 0V13.19c-.007-5.77-4.687-10.444-10.461-10.45h-1.651c-5.767.015-10.437 4.687-10.444 10.45v28.295a7.827 7.827 0 007.817 7.811h1.905a7.822 7.822 0 007.817-7.811V25.713a6.228 6.228 0 00-1.822-4.41 6.237 6.237 0 00-4.409-1.83h-.199a6.54 6.54 0 00-4.64 1.922 6.474 6.474 0 00-1.914 4.607v13.463a1.36 1.36 0 01-2.723 0V25.99a9.241 9.241 0 012.724-6.542 9.255 9.255 0 016.558-2.694h.194c4.949.005 8.958 4.015 8.958 8.96v15.769c-.015 5.81-4.73 10.513-10.544 10.518z"/><path id="name" fill="#0092AA" d="M25.818 32.154h6.178a.887.887 0 01.737.336c.169.217.26.482.258.753.005.294-.086.58-.258.821a.886.886 0 01-.737.353h-6.178v16.536a.88.88 0 01-.438.753c-.306.201-.67.304-1.039.293a1.534 1.534 0 01-.95-.293.906.906 0 01-.39-.753V27.705a7.299 7.299 0 01.626-3c.4-.908.963-1.739 1.665-2.454a7.823 7.823 0 012.445-1.642 7.403 7.403 0 012.962-.608h1.1c.337-.012.66.128.877.378.213.246.328.559.324.88.003.313-.113.616-.324.852-.216.251-.54.391-.877.378h-.753a5.047 5.047 0 00-2.073.426 5.371 5.371 0 00-1.643 1.097 5.523 5.523 0 00-1.105 1.595 4.596 4.596 0 00-.407 1.91v4.637zm12.002.01h6.184a.888.888 0 01.737.337c.17.216.26.48.259.752.004.293-.086.58-.259.82a.887.887 0 01-.737.354H37.82v16.526a.88.88 0 01-.438.753c-.306.201-.67.304-1.04.293a1.537 1.537 0 01-.952-.293.905.905 0 01-.39-.753V27.718a7.286 7.286 0 01.627-2.998 8.24 8.24 0 011.667-2.453 7.826 7.826 0 012.443-1.658A7.418 7.418 0 0142.702 20h1.083c.337-.012.66.128.877.378.214.246.329.559.325.88.003.313-.113.615-.325.85-.215.252-.54.392-.877.379h-.737a5.058 5.058 0 00-2.074.425 5.373 5.373 0 00-1.64 1.114 5.52 5.52 0 00-1.106 1.594 4.588 4.588 0 00-.408 1.91v4.634zm11.228-10.163a2.017 2.017 0 011.384.515c.369.323.575.779.568 1.254.003.48-.202.94-.568 1.272-.364.35-.864.545-1.384.537a2.093 2.093 0 01-1.457-.537A1.707 1.707 0 0147 23.77c-.006-.48.21-.937.59-1.254.397-.343.92-.528 1.457-.515zm0 9.613c.379-.013.753.085 1.07.28.273.163.436.45.43.756v18.23a.982.982 0 01-.43.774c-.3.234-.68.357-1.07.345a1.562 1.562 0 01-1.047-.345.997.997 0 01-.41-.774V32.65a.861.861 0 01.41-.756 1.806 1.806 0 011.047-.28zm12.95 21.383a9.154 9.154 0 01-3.56-.626 6.822 6.822 0 01-2.505-1.727 7.031 7.031 0 01-1.46-2.594A10.693 10.693 0 0154 44.785v-4.623c-.01-1.093.149-2.181.471-3.22.3-.963.79-1.847 1.44-2.595a6.632 6.632 0 012.484-1.718 9.154 9.154 0 013.56-.626 9.344 9.344 0 012.388.28 8.207 8.207 0 011.832.693c.444.219.842.527 1.173.907.251.232.4.563.412.915.012.351-.114.692-.35.943a1.036 1.036 0 01-.834.438.929.929 0 01-.597-.259 5.584 5.584 0 00-.802-.539 7.425 7.425 0 00-1.252-.539c-.6-.19-1.226-.28-1.853-.263-1.811 0-3.164.499-4.057 1.495-.893.996-1.338 2.357-1.336 4.084v4.623c0 1.753.452 3.129 1.357 4.128.904.999 2.264 1.495 4.078 1.49a5.82 5.82 0 003.21-.82c.279-.167.547-.354.8-.56a.983.983 0 01.64-.26c.352-.018.69.145.905.439.207.262.323.59.33.929a1.454 1.454 0 01-.417.929 4.39 4.39 0 01-1.215.929 8 8 0 01-1.895.714 10.05 10.05 0 01-2.475.298zm17.09-20.98a7.93 7.93 0 013.008.583c.934.372 1.79.922 2.522 1.621a7.914 7.914 0 011.72 2.484c.445.997.67 2.082.657 3.177a4.748 4.748 0 01-.318 1.945c-.175.417-.46.775-.825 1.034a2.486 2.486 0 01-1.186.412c-.43.044-.907.066-1.358.066h-9.561v1.581a5.054 5.054 0 001.822 4.105 7.246 7.246 0 008.053.67c.37-.218.678-.437.932-.604.205-.17.458-.268.722-.28a1.01 1.01 0 01.86.473c.202.247.32.554.339.876a1.417 1.417 0 01-.43.876 4.53 4.53 0 01-1.289.93 9.68 9.68 0 01-1.994.73 10.58 10.58 0 01-2.651.303 11.048 11.048 0 01-3.666-.583 8.36 8.36 0 01-2.879-1.664 7.549 7.549 0 01-1.886-2.59A8.117 8.117 0 0171 44.79v-4.82a7.46 7.46 0 01.637-3.066c1.317-2.995 4.241-4.916 7.46-4.903l-.009.018zm3.137 9.245a3.404 3.404 0 001.693-.28c.284-.185.43-.583.43-1.188 0-.689-.13-1.372-.383-2.01a5.713 5.713 0 00-1.078-1.753 5.252 5.252 0 00-5.892-1.275 5.47 5.47 0 00-1.676 1.121 5.31 5.31 0 00-1.143 1.687 5.069 5.069 0 00-.43 2.055v1.639l8.479.004zm35.135-8.989c.333-.01.66.086.933.273.247.165.39.445.379.74v1.917a7.25 7.25 0 012.151-2.212 6.055 6.055 0 013.54-.987 7.314 7.314 0 012.97.636 7.581 7.581 0 012.438 1.683 7.962 7.962 0 012.229 5.58v4.591a7.689 7.689 0 01-.615 3.016 8.536 8.536 0 01-1.657 2.563 8.467 8.467 0 01-2.396 1.768 6.545 6.545 0 01-6.324-.295 6.382 6.382 0 01-2.25-2.272v11.67a.947.947 0 01-.404.718c-.28.227-.633.347-.994.337a1.426 1.426 0 01-.977-.337.972.972 0 01-.383-.718V33.285a.853.853 0 01.383-.739c.288-.193.63-.289.977-.273zm11.878 7.63a4.96 4.96 0 00-.43-1.983 5.747 5.747 0 00-1.145-1.708 5.89 5.89 0 00-1.699-1.2 4.8 4.8 0 00-2.078-.466 5.1 5.1 0 00-1.888.358 4.9 4.9 0 00-1.635 1.055 5.339 5.339 0 00-1.166 1.683 5.46 5.46 0 00-.43 2.256v5.899c.034.417.165.82.383 1.179.284.517.648.987 1.08 1.392a6.407 6.407 0 001.656 1.137 4.76 4.76 0 002.1.461c.698.002 1.389-.156 2.017-.461a5.789 5.789 0 001.678-1.222 5.95 5.95 0 001.144-1.747 5.2 5.2 0 00.43-2.046l-.017-4.588zm11.598 10.72c1.669 0 2.842-.302 3.52-.907a2.815 2.815 0 001.009-2.165 2.902 2.902 0 00-.812-2.192 6.262 6.262 0 00-2.004-1.253 21.505 21.505 0 00-2.619-.842 12.895 12.895 0 01-2.62-.973 6.168 6.168 0 01-1.998-1.6 4.328 4.328 0 01-.817-2.81 6.04 6.04 0 01.375-2.073 5.16 5.16 0 011.21-1.885 6.393 6.393 0 012.159-1.38 8.496 8.496 0 013.213-.54c.722-.002 1.444.062 2.155.193.634.112 1.26.266 1.874.46.48.15.932.377 1.338.67.28.171.467.459.504.781-.03.325-.143.637-.33.907a.969.969 0 01-.856.561 1.619 1.619 0 01-.66-.192 11.011 11.011 0 00-.969-.412 13.137 13.137 0 00-1.339-.412 6.97 6.97 0 00-1.713-.193 5.782 5.782 0 00-2.07.324 4.181 4.181 0 00-1.366.82c-.334.306-.59.684-.75 1.104a3.276 3.276 0 00-.218 1.122c-.043.73.27 1.437.843 1.903a6.513 6.513 0 002.022 1.06c.806.275 1.679.535 2.619.78.914.235 1.794.582 2.619 1.035.807.447 1.5 1.07 2.026 1.82.586.924.869 2.002.812 3.09a4.968 4.968 0 01-1.847 4.085c-1.232.994-2.978 1.49-5.239 1.49a12.222 12.222 0 01-2.815-.302 9.907 9.907 0 01-2.178-.754 4.793 4.793 0 01-1.41-1.017 1.615 1.615 0 01-.504-1.039c.004-.313.103-.619.286-.876a.845.845 0 01.727-.439c.28.02.543.135.745.325.325.258.671.49 1.035.692.505.28 1.035.511 1.584.693a7.712 7.712 0 002.459.342zM9.43 52h-.2C4.139 52.002.007 48.019 0 43.1V29.2c-.007-2.443 1-4.788 2.796-6.508C4.594 20.96 7.031 19.993 9.57 20h.2c2.45.002 4.8.945 6.531 2.62 1.731 1.676 2.702 3.947 2.7 6.315v13.877c-.025 5.086-4.304 9.195-9.569 9.188zm.138-29.251a6.87 6.87 0 00-4.791 1.901 6.345 6.345 0 00-1.968 4.551v13.882a6.094 6.094 0 001.88 4.387 6.533 6.533 0 004.54 1.816h.201c3.72.007 6.745-2.897 6.76-6.492v-13.86c-.015-3.417-2.884-6.18-6.422-6.185h-.2z"/></svg>