<svg xmlns="http://www.w3.org/2000/svg"><symbol id="sprite-facebook" viewBox="0 0 24 24"><title>facebook</title><path d="M5 3h14a2 2 0 012 2v14a2 2 0 01-2 2H5a2 2 0 01-2-2V5a2 2 0 012-2m13 2h-2.5A3.5 3.5 0 0012 8.5V11h-2v3h2v7h3v-7h3v-3h-3V9a1 1 0 011-1h2V5z"/></symbol><symbol id="sprite-linkedin" viewBox="0 0 24 24"><title>linkedin</title><path d="M19 3a2 2 0 012 2v14a2 2 0 01-2 2H5a2 2 0 01-2-2V5a2 2 0 012-2h14m-.5 15.5v-5.3a3.26 3.26 0 00-3.26-3.26c-.85 0-1.84.52-2.32 1.3v-1.11h-2.79v8.37h2.79v-4.93c0-.77.62-1.4 1.39-1.4a1.4 1.4 0 011.4 1.4v4.93h2.79M6.88 8.56a1.68 1.68 0 001.68-1.68c0-.93-.75-1.69-1.68-1.69a1.69 1.69 0 00-1.69 1.69c0 .93.76 1.68 1.69 1.68m1.39 9.94v-8.37H5.5v8.37h2.77z"/></symbol><symbol id="sprite-mdi-email" viewBox="0 0 24 24"><title>mdi-email</title><path d="M22 6c0-1.1-.9-2-2-2H4c-1.1 0-2 .9-2 2v12c0 1.1.9 2 2 2h16c1.1 0 2-.9 2-2V6m-2 0l-8 5-8-5h16m0 12H4V8l8 5 8-5v10z"/></symbol><symbol id="sprite-mdi-phone" viewBox="0 0 24 24"><title>mdi-phone</title><path d="M6.62 10.79c1.44 2.83 3.76 5.15 6.59 6.59l2.2-2.2c.28-.28.67-.36 1.02-.25 1.12.37 2.32.57 3.57.57a1 1 0 011 1V20a1 1 0 01-1 1A17 17 0 013 4a1 1 0 011-1h3.5a1 1 0 011 1c0 1.25.2 2.45.57 3.57.11.35.03.74-.25 1.02l-2.2 2.2z"/></symbol><symbol id="sprite-twitter" viewBox="0 0 24 24"><title>twitter</title><path d="M22.46 6c-.77.35-1.6.58-2.46.69.88-.53 1.56-1.37 1.88-2.38-.83.5-1.75.85-2.72 1.05C18.37 4.5 17.26 4 16 4c-2.35 0-4.27 1.92-4.27 4.29 0 .34.04.67.11.98C8.28 9.09 5.11 7.38 3 4.79c-.37.63-.58 1.37-.58 2.15 0 1.49.75 2.81 1.91 3.56-.71 0-1.37-.2-1.95-.5v.03c0 2.08 1.48 3.82 3.44 4.21a4.22 4.22 0 01-1.93.07 4.28 4.28 0 004 2.98 8.521 8.521 0 01-5.33 1.84c-.34 0-.68-.02-1.02-.06C3.44 20.29 5.7 21 8.12 21 16 21 20.33 14.46 20.33 8.79c0-.19 0-.37-.01-.56.84-.6 1.56-1.36 2.14-2.23z"/></symbol></svg>